<svg xmlns="http://www.w3.org/2000/svg" viewBox="0 0 1920 1767">
	<path fill="currentColor" d="M295,1768c-14,0-27,0-41,0c-5-1-10-2-14-3c-19-5-33-16-38-35c-3-12-4-25-5-38c-1-15,0-31,0-46c0-149,0-298,0-447 c0-197,0-394,0-591c0-8,0-15,0-23c0-4,0-7,0-12c-7,4-13,8-19,12c-27,15-53,30-80,45c-13,7-27,11-42,9c-24-4-39-19-49-40 c-2-5-4-10-5-15c0-7,0-14,0-22c4-16,12-29,26-37c15-9,31-18,46-26c87-49,173-99,260-148c76-43,152-86,228-129c99-56,198-112,296-168 c21-12,41-25,62-36c12-6,25-11,37-16c4,0,7,0,12,0c3,1,6,2,9,3c20,10,40,19,59,30c39,22,77,46,116,69c77,44,154,87,231,131 c99,56,198,112,297,168c40,23,81,45,121,68c25,14,51,27,75,42c19,12,39,24,44,50c0,7,0,13,0,21c0,3,0,5,0,7 c-5,19-15,35-33,44c-21,12-42,8-62-3c-21-12-41-24-62-36c-11-7-23-14-35-21c0,5-1,10-1,14c0,19,0,37,0,56c0,328,0,657,0,985 c0,12,1,24,1,35c0,18,1,36-2,54c-4,30-21,46-50,50c-3,0-5,1-8,1c-24,0-48,0-73,0c-25,0-49,0-74,0c-21,0-41-1-60-5 c-16-4-27-14-29-30c-1-9-2-17-2-25c0-15,1-30,1-45c0-251,0-503,0-754c0-13-2-26-4-39c-4-24-18-39-42-44c-11-2-22-4-34-4 c-144,0-289,0-433,0c-46,0-91,0-137,0c-67,0-135,0-202,1c-13,0-27,2-40,5c-23,5-36,20-39,43c-1,12-3,25-3,37c0,244,0,488,0,732 c0,10,1,19,1,29c1,19,1,37-3,56c-6,27-21,40-48,43c-5,1-10,1-16,2c-27,0-54,0-82,0c-17,0-34,0-50,0 C296,1767,296,1768,295,1768z M551,1092v158h818c4-52,2-105,1-158H551z M551,1307v158h819v-158H551z M551,878v157h819c0-5,1-10,1-15 c0-16,1-33,1-49c1-29,1-57-2-86c0-4-2-5-6-5c-12,0-24-1-35-1h-219c-100,0-201,0-301,0c-49,0-97,0-146-1c-33,0-66,0-99,0 c-4,0-8,0-13,1V878z M552,1522v157h818c0-10-1-21-1-31c-1-15,0-31-1-46c0-23,0-46-1-69c0-2-0-4-0-6L552,1522z"/>
</svg>