<svg version="1.1" id="Layer_1" xmlns="http://www.w3.org/2000/svg" xmlns:xlink="http://www.w3.org/1999/xlink" x="0px" y="0px"
	 width="100%" viewBox="0 0 1024 1024" enable-background="new 0 0 1024 1024" xml:space="preserve">
<path fill="none" opacity="1.000000" stroke="#000000" stroke-linecap="round" stroke-linejoin="round" stroke-width="6.000000"
	d="
M299.500000,817.000000 
	C304.477539,818.482422 304.950592,823.272827 306.420837,827.030945 
	C318.511139,857.934204 336.895538,884.366333 362.555450,905.432434 
	C381.185028,920.726929 402.433838,931.247375 426.028992,936.366333 
	C436.808228,938.704834 447.898712,940.129761 458.995453,939.428223 
	C475.391144,938.391785 491.395905,935.080872 506.475952,928.445374 
	C537.276672,914.892334 560.255737,892.638916 577.551147,864.030945 
	C588.315674,846.225586 595.768860,827.119995 600.363403,806.968872 
	C603.159790,794.704407 604.871521,782.126404 604.914856,769.499695 
	C604.965759,754.669312 605.628906,739.822876 604.511597,724.999146 
	C604.424133,723.839050 604.500000,722.666687 604.500000,721.500000 
	C604.500000,713.666687 604.522095,705.833252 604.496338,698.000000 
	C604.336914,649.500000 604.539429,600.994873 603.874268,552.501709 
	C603.398621,517.830811 603.766846,483.166290 603.510864,448.499908 
	C603.291748,418.833649 603.540222,389.158508 602.892517,359.502350 
	C602.273621,331.163727 602.963684,302.829590 602.455200,274.500793 
	C601.908630,244.048065 595.965332,214.760330 583.037415,186.982590 
	C568.132507,154.956696 546.245911,129.274811 515.490051,111.517235 
	C500.263641,102.725990 484.006042,97.026329 466.521851,94.356934 
	C453.805023,92.415398 441.131073,91.775124 428.516174,93.611206 
	C403.986420,97.181458 381.571594,106.300957 361.494202,120.992096 
	C341.480560,135.636612 325.744415,154.070114 313.545929,175.526123 
	C304.119049,192.107178 297.224976,209.722916 293.497742,228.499557 
	C293.013062,230.941254 291.289307,232.498276 289.500000,234.000000 
"/>
<path fill="none" opacity="1.000000" stroke="#000000" stroke-linecap="round" stroke-linejoin="round" stroke-width="6.000000"
	d="
M721.500000,780.500000 
	C727.316711,779.288940 731.137634,774.941040 735.482666,771.478210 
	C765.349426,747.675598 783.612061,716.368103 793.351746,679.960327 
	C797.699463,663.708374 799.276123,646.931091 799.065979,629.999207 
	C798.795105,608.169250 799.337158,586.327026 798.930420,564.501282 
	C798.057739,517.667053 799.024292,470.829559 798.371582,424.001801 
	C798.139282,407.332611 798.449768,390.659515 797.941650,374.001770 
	C797.417419,356.815979 794.553894,340.077362 789.690613,323.444275 
	C778.306396,284.508636 756.352478,253.178391 724.436646,228.582214 
	C722.078796,226.765091 720.042542,224.326019 716.520630,223.848053 
	C713.431335,223.428802 713.174011,219.917175 712.600647,217.476349 
	C711.840698,214.240768 710.998901,211.040359 711.224915,207.482529 
	C711.367188,205.242950 708.314758,202.982880 707.591248,200.473709 
	C704.707642,190.474243 700.307251,181.140167 695.467834,172.017075 
	C676.573120,136.397491 649.797729,108.483833 613.416199,90.671219 
	C600.322449,84.260429 586.237732,80.193008 571.514099,78.385017 
	C550.314941,75.781860 529.170532,77.643890 508.000153,78.008133 
	C502.665222,78.099922 497.327393,77.729561 491.991852,78.438751 
	C489.793640,78.730927 487.946381,79.315384 486.475739,81.001373 
	C488.233429,83.383148 490.770447,84.246078 493.489441,85.036362 
	C517.240540,91.939575 537.774658,104.522919 555.978394,121.023865 
	C575.761108,138.956161 590.257751,160.744781 600.909851,185.039536 
	C608.738647,202.895050 613.779602,221.611725 616.627319,240.981277 
	C618.364197,252.795441 619.343018,264.619354 619.436279,276.500488 
	C619.641663,302.665558 619.097046,328.841461 619.624023,354.997498 
	C620.067383,377.002991 619.411682,399.011414 620.110291,420.996490 
	C620.645447,437.838287 620.381348,454.666931 620.470215,471.500153 
	C620.721863,519.166382 620.462036,566.838257 621.099792,614.498657 
	C621.797913,666.668091 621.324707,718.833679 621.382507,771.000122 
	C621.393860,781.235168 619.467957,791.384460 617.687317,801.532837 
	C615.561279,813.649780 612.578735,825.437073 608.505615,837.002014 
	C593.923889,878.404480 568.400146,910.960938 530.481873,933.469482 
	C527.285522,935.366943 523.929688,937.084229 520.466980,938.413940 
	C518.054016,939.340515 516.500366,940.759644 515.500000,943.000000 
"/>
<path fill="none" opacity="1.000000" stroke="#000000" stroke-linecap="round" stroke-linejoin="round" stroke-width="6.000000"
	d="
M719.000000,793.500000 
	C724.862854,794.711548 728.728760,790.345459 732.909424,787.848328 
	C763.967529,769.297974 786.085022,742.693054 800.929504,709.968018 
	C807.569702,695.329529 812.083069,679.996033 814.626709,664.020142 
	C816.506653,652.213074 817.545837,640.432983 817.524292,628.499939 
	C817.457825,591.666748 817.880920,554.828247 817.389282,518.001465 
	C816.928589,483.498474 817.490540,448.994598 816.870300,414.502319 
	C816.582520,398.497864 817.289246,382.467834 816.363708,366.507904 
	C815.200623,346.454254 811.326355,326.829681 804.005981,307.997681 
	C790.470703,273.177551 769.600220,243.959610 739.059814,221.917145 
	C732.882080,217.458405 726.436462,213.504532 719.974548,209.541534 
	C717.583191,208.074966 715.063538,206.563446 712.000000,207.000000 
"/>
<path fill="none" opacity="1.000000" stroke="#000000" stroke-linecap="round" stroke-linejoin="round" stroke-width="6.000000"
	d="
M339.500000,309.000000 
	C336.710907,313.573517 338.803772,317.866547 340.544647,321.981110 
	C351.650940,348.230438 369.306213,368.512787 395.552094,380.384796 
	C404.792236,384.564453 414.655487,387.097778 424.997894,387.548584 
	C464.143585,389.255035 492.072266,370.791992 512.443420,338.963776 
	C521.202759,325.278046 526.021545,310.095428 528.586243,294.013763 
	C533.750488,261.631866 527.589294,231.806931 509.477051,204.515228 
	C496.530029,185.006500 479.232269,171.226639 456.521179,164.429245 
	C444.481720,160.825836 432.516083,159.816635 419.983917,161.370331 
	C393.633270,164.637177 373.348938,177.776794 356.959808,197.967377 
	C354.936249,200.460251 353.873627,202.885071 355.000000,206.000000 
"/>
<path fill="none" opacity="1.000000" stroke="#000000" stroke-linecap="round" stroke-linejoin="round" stroke-width="6.000000"
	d="
M340.000000,309.000000 
	C344.979950,311.450012 345.462952,316.814484 347.399384,321.046051 
	C359.982056,348.542511 380.419952,367.489471 409.568054,375.244171 
	C434.499115,381.876923 457.890289,375.847809 478.445404,360.427216 
	C499.832764,344.382263 511.821930,322.227783 517.414551,296.481445 
	C519.620300,286.326965 520.482361,275.847992 519.403015,265.510132 
	C515.410522,227.270721 499.339386,196.424500 463.965759,178.065994 
	C455.434235,173.638229 446.182678,171.387833 436.508240,170.417953 
	C406.120819,167.371613 382.323547,179.644180 362.541962,201.537918 
	C360.660583,203.620178 359.115692,205.824600 356.001221,206.019608 
	C354.214539,206.131485 353.795166,207.855072 353.027405,209.018082 
	C345.721008,220.086288 340.431610,232.129471 337.598419,245.021622 
	C332.929932,266.265198 332.693146,287.526733 339.500000,308.500000 
"/>
<path fill="none" opacity="1.000000" stroke="#000000" stroke-linecap="round" stroke-linejoin="round" stroke-width="6.000000"
	d="
M486.000000,80.500000 
	C475.187408,79.550514 464.372833,78.849098 453.499664,78.970284 
	C414.790710,79.401741 381.000458,92.526741 351.453857,117.445274 
	C326.676208,138.341827 309.367035,164.409225 297.075165,194.031189 
	C292.807709,204.315308 288.547333,214.954697 287.862854,226.022446 
	C287.381042,233.813232 288.590210,241.740768 286.510651,249.502853 
	C286.427307,249.813858 286.357300,250.284164 286.520874,250.482819 
	C290.712463,255.574112 288.333893,261.508789 288.391571,267.001129 
	C288.643616,290.998505 287.990417,315.013031 288.603851,338.997345 
	C289.967926,392.330658 289.254761,445.666107 289.513519,498.999939 
	C289.528931,502.175201 288.955627,505.051819 287.644958,508.063080 
	C285.960388,511.933472 286.817993,516.372131 287.125854,520.490601 
	C287.450806,524.838196 287.361969,529.165588 287.500000,533.500000 
"/>
<path fill="none" opacity="1.000000" stroke="#000000" stroke-linecap="round" stroke-linejoin="round" stroke-width="6.000000"
	d="
M722.500000,363.500000 
	C724.146667,363.540039 725.333740,364.452026 726.507996,365.490936 
	C750.341187,386.577576 767.586365,412.034027 778.640808,441.947968 
	C784.062927,456.620514 787.585693,471.658203 789.310852,487.021240 
	C790.949463,501.614044 790.645874,516.267029 788.728943,531.029724 
	C785.649048,554.748474 778.449402,576.916138 767.482971,597.991150 
	C758.071045,616.078857 745.463562,631.734314 730.430054,645.423218 
	C728.410400,647.262146 726.284424,649.637451 723.000000,649.500000 
"/>
<path fill="none" opacity="1.000000" stroke="#000000" stroke-linecap="round" stroke-linejoin="round" stroke-width="6.000000"
	d="
M716.000000,224.500000 
	C714.598328,227.000000 715.505371,229.513824 716.012268,231.997498 
	C717.765442,240.587418 719.035950,249.246323 719.482117,258.000916 
	C720.585999,279.658020 719.460999,301.342773 720.119507,322.996368 
	C720.459229,334.170959 719.779236,345.376282 720.725342,356.480804 
	C721.146729,361.427765 720.482666,366.166595 720.497498,371.000000 
	C720.668091,426.666656 720.473633,482.337585 721.130615,537.998474 
	C721.545715,573.168884 720.820435,608.343018 721.654907,643.496338 
	C722.098267,662.173462 721.734619,680.833740 721.953308,699.500549 
	C722.167969,717.831360 721.964417,736.166809 722.018372,754.499939 
	C722.038574,761.367188 721.510864,768.183105 720.765442,775.001709 
	C716.138000,817.330627 699.955688,852.417297 678.545776,879.036865 
	C661.267212,900.519897 640.308899,917.119751 614.960754,927.907715 
	C604.628052,932.305298 593.793579,935.212280 582.511902,936.597168 
	C566.631470,938.546570 550.838257,941.201050 534.996826,943.478027 
	C530.517517,944.121826 525.809143,945.565857 521.535706,944.800537 
	C508.606171,942.485168 497.268860,949.230347 484.998901,950.236572 
	C473.520813,951.177795 462.237183,953.009155 450.469147,951.800415 
	C435.246796,950.236938 420.782288,946.832397 406.453796,941.627197 
	C387.511902,934.745972 371.068573,923.981384 356.051178,910.941040 
	C334.916260,892.588623 318.856445,870.317444 307.017914,844.991638 
	C304.395721,839.382019 301.710236,833.770996 299.617615,827.957642 
	C298.508789,824.877380 297.048035,821.530945 298.927429,817.961792 
	C299.763611,816.373657 298.546661,814.655029 298.050507,812.984985 
	C294.063995,799.565552 291.392426,785.857483 289.559662,771.992126 
	C289.276886,769.852844 289.166321,767.615112 290.428772,765.458313 
	C291.540802,763.558411 291.544159,761.258545 291.534454,758.999878 
	C291.468475,743.666809 291.472137,728.333191 291.525085,713.000061 
	C291.534912,710.159912 291.425140,707.469421 289.000000,705.500000 
"/>
<path fill="none" opacity="1.000000" stroke="#000000" stroke-linecap="round" stroke-linejoin="round" stroke-width="6.000000"
	d="
M285.000000,252.500000 
	C282.996460,254.216583 282.435059,256.334778 282.440674,259.000122 
	C282.526031,299.499939 281.658386,340.022461 282.738037,380.493652 
	C283.805481,420.507507 282.973297,460.501556 283.471252,500.500366 
	C283.504791,503.195282 283.766449,505.666748 286.000000,507.500000 
"/>
<path fill="none" opacity="1.000000" stroke="#000000" stroke-linecap="round" stroke-linejoin="round" stroke-width="6.000000"
	d="
M287.000000,534.500000 
	C284.766449,536.333252 284.472229,538.802185 284.475647,541.500061 
	C284.514130,571.833313 284.514130,602.166687 284.475647,632.499939 
	C284.472229,635.197815 284.766449,637.666748 287.000000,639.500000 
"/>
<path fill="none" opacity="1.000000" stroke="#000000" stroke-linecap="round" stroke-linejoin="round" stroke-width="6.000000"
	d="
M288.000000,534.500000 
	C290.233551,536.333252 290.527771,538.802185 290.524353,541.500061 
	C290.485870,571.833313 290.485870,602.166687 290.524353,632.499939 
	C290.527771,635.197815 290.233551,637.666748 288.000000,639.500000 
"/>
<path fill="none" opacity="1.000000" stroke="#000000" stroke-linecap="round" stroke-linejoin="round" stroke-width="12.000000"
	d="
M287.500000,640.500000 
	C287.833344,661.833313 288.166656,683.166687 288.500000,704.500000 
"/>
<path fill="none" opacity="1.000000" stroke="#000000" stroke-linecap="round" stroke-linejoin="round" stroke-width="6.000000"
	d="
M288.000000,705.500000 
	C285.766449,707.333252 285.465942,709.801880 285.474823,712.500061 
	C285.526306,728.166626 285.530914,743.833435 285.467804,759.499878 
	C285.457947,761.947998 285.613556,764.147156 288.000000,765.500000 
"/>
<path fill="none" opacity="1.000000" stroke="#000000" stroke-linecap="round" stroke-linejoin="round" stroke-width="6.000000"
	d="
M441.500000,127.500000 
	C437.246857,129.832855 432.483856,128.408646 427.954834,129.259521 
	C417.928497,131.143158 408.273041,133.818893 398.999268,137.998383 
	C367.632996,152.134491 346.644318,176.301575 332.533752,207.015503 
	C327.191315,218.644272 323.710846,230.833115 321.347870,243.471558 
	C319.016754,255.939590 318.099792,268.411621 318.548981,280.998260 
	C319.187042,298.877411 322.557465,316.323669 329.084930,332.966675 
	C336.958557,353.041962 348.250885,371.058044 364.019623,385.979248 
	C381.038696,402.083618 400.540039,413.274506 423.978088,417.618164 
	C456.504120,423.646057 485.529327,415.864044 511.969116,396.956818 
	C529.997681,384.064453 543.186951,366.765717 553.307861,347.399597 
	C560.951294,332.774017 565.847961,316.866272 568.401245,300.484619 
	C570.356934,287.937012 571.591797,275.175873 570.377319,262.511780 
	C568.191406,239.718109 562.637634,217.925659 551.687256,197.400116 
	C540.355164,176.159302 525.205688,158.939560 505.011749,145.981705 
	C491.651886,137.409088 477.265564,131.783630 461.514526,129.403870 
	C455.018646,128.422455 448.505341,128.114624 442.000000,127.500000 
"/>
<path fill="none" opacity="1.000000" stroke="#000000" stroke-linecap="round" stroke-linejoin="round" stroke-width="6.000000"
	d="
M444.500000,752.500000 
	C439.322113,756.228455 438.470184,758.145325 440.500000,761.500000 
	C442.403320,764.645569 446.118591,765.519775 449.000000,763.500000 
	C451.781555,761.550354 452.277283,757.828735 449.974243,755.021118 
	C448.732941,753.507874 447.257812,752.151062 445.000000,752.500000 
"/>
</svg>