<svg version="1.1" id="Layer_1" xmlns="http://www.w3.org/2000/svg" xmlns:xlink="http://www.w3.org/1999/xlink" x="0px" y="0px"
	 width="100%" viewBox="0 0 1024 1024" enable-background="new 0 0 1024 1024" xml:space="preserve">
<path fill="none" opacity="1.000000" stroke="#000000" stroke-linecap="round" stroke-linejoin="round" stroke-width="7.000000"
	d="
M516.500000,531.750000 
	C520.272156,532.666321 522.833862,535.601196 525.951782,537.576050 
	C535.087219,543.362305 543.973389,549.540527 553.012085,555.481628 
	C557.067871,558.147461 559.521973,561.499451 560.612366,566.475403 
	C565.007935,586.534790 570.015747,606.460144 574.401306,626.521545 
	C575.942749,633.572937 571.668030,640.392822 563.490845,641.951843 
	C556.955444,643.197876 550.389221,639.433899 548.536438,631.990906 
	C546.056152,622.027527 543.775208,612.013062 541.518616,601.995789 
	C539.758789,594.183472 538.055725,586.354309 536.568298,578.487061 
	C536.128479,576.160767 534.477722,574.989746 532.951965,574.080566 
	C522.417358,567.802856 512.380981,560.748169 501.703094,554.644653 
	C495.921173,551.339722 490.312744,546.923157 484.933472,542.582458 
	C483.193420,541.178406 481.971680,538.955566 479.500000,538.500000 
"/>
<path fill="none" opacity="1.000000" stroke="#000000" stroke-linecap="round" stroke-linejoin="round" stroke-width="7.000000"
	d="
M500.500000,468.500000 
	C500.901886,473.367249 498.042023,477.301910 496.363831,481.444824 
	C491.238800,494.096741 485.531067,506.513794 479.984436,518.993103 
	C477.821442,523.859558 477.836823,528.974731 478.632446,533.978943 
	C479.106384,536.959473 478.010559,538.684875 476.650208,541.085144 
	C472.725159,548.010925 469.051605,555.156494 466.134125,562.552917 
	C463.542145,569.124084 460.157440,573.258301 452.518341,574.156067 
	C438.786713,575.769836 425.164825,578.321777 411.500763,580.504822 
	C404.522400,581.619690 398.942230,587.225891 398.500000,593.500000 
	C398.159393,598.332520 402.999969,605.125061 407.993561,607.017029 
	C412.266205,608.635864 416.501923,606.986755 420.459869,606.276367 
	C429.792328,604.601379 439.167480,603.171143 448.500702,601.503845 
	C456.997467,599.985962 465.524902,598.626709 473.992401,596.961487 
	C481.250702,595.534119 482.879669,589.067810 485.520172,583.509583 
	C490.191742,573.676086 494.461395,563.629456 500.500000,554.500000 
"/>
<path fill="none" opacity="1.000000" stroke="#000000" stroke-linecap="round" stroke-linejoin="round" stroke-width="8.000000"
	d="
M502.500000,466.750000 
	C501.214966,467.321228 500.085876,468.512268 498.503571,467.989227 
	C493.265320,466.257721 488.170837,468.431427 483.001617,468.563446 
	C480.422821,468.629333 479.790924,471.301605 478.507446,473.005615 
	C472.490845,480.993073 466.441498,488.957062 460.526550,497.019470 
	C457.861115,500.652618 454.716278,502.811066 449.997437,502.015198 
	C444.815979,501.141296 442.048035,497.940186 441.005554,492.998840 
	C440.377655,490.022491 441.416809,487.286499 443.053802,485.039185 
	C450.766235,474.451141 458.770569,464.075104 466.443970,453.459503 
	C469.156067,449.707550 472.349640,447.397125 476.998199,446.979919 
	C489.336853,445.872437 501.667877,444.679352 513.999268,443.492493 
	C517.829956,443.123810 521.585327,442.310669 525.501953,442.440186 
	C534.723694,442.745087 541.882385,448.412048 543.995117,457.501129 
	C544.519348,459.756317 545.915588,461.426208 547.496887,463.003113 
	C553.171448,468.661926 559.180115,474.036469 564.375977,480.106140 
	C567.746460,484.043457 571.187927,484.113525 575.506897,483.027466 
	C584.484070,480.769989 593.507446,478.697052 602.497498,476.489899 
	C609.052856,474.880493 614.931396,477.783203 616.500000,483.500000 
	C618.074158,489.236908 614.951416,495.036011 608.476685,496.919983 
	C597.728943,500.047272 586.849609,502.732056 575.983276,505.432648 
	C574.269592,505.858521 572.658386,506.593689 570.986084,506.931000 
	C565.854675,507.965973 561.100769,508.261719 556.892151,503.597290 
	C551.526001,497.649994 545.532471,492.291107 539.242188,487.200714 
	C536.575439,485.042694 533.013977,481.907593 532.500000,477.500000 
"/>
<path fill="none" opacity="1.000000" stroke="#000000" stroke-linecap="round" stroke-linejoin="round" stroke-width="7.000000"
	d="
M626.000000,373.000000 
	C632.042847,382.038330 636.714539,391.582397 638.568542,402.488342 
	C641.449402,419.434753 638.143188,435.121887 629.983154,449.990753 
	C628.939819,451.891815 627.498596,453.583862 626.544067,455.521698 
	C625.439392,457.764374 623.811523,458.456390 621.500000,458.000000 
"/>
<path fill="none" opacity="1.000000" stroke="#000000" stroke-linecap="round" stroke-linejoin="round" stroke-width="7.000000"
	d="
M437.000000,461.000000 
	C431.192352,462.065521 425.310486,461.687500 419.503754,461.418793 
	C400.835144,460.554932 382.165741,461.271759 363.500000,461.000000 
"/>
<path fill="none" opacity="1.000000" stroke="#000000" stroke-linecap="round" stroke-linejoin="round" stroke-width="8.000000"
	d="
M473.500000,435.750000 
	C472.635620,436.542480 471.593170,436.517151 470.499969,436.515747 
	C453.333344,436.493347 436.166626,436.511108 419.000031,436.478424 
	C417.666382,436.475891 416.333344,436.166656 415.000000,436.000000 
"/>
<path fill="none" opacity="1.000000" stroke="#000000" stroke-linecap="round" stroke-linejoin="round" stroke-width="7.000000"
	d="
M612.000000,386.500000 
	C623.766479,404.625458 623.834900,422.987305 612.933960,441.461029 
	C611.950867,443.127045 611.321960,444.629913 611.500000,446.500000 
"/>
<path fill="none" opacity="1.000000" stroke="#000000" stroke-linecap="round" stroke-linejoin="round" stroke-width="8.000000"
	d="
M396.500000,511.750000 
	C398.001740,513.099609 399.829529,512.488403 401.499634,512.468811 
	C415.166351,512.308899 428.843506,513.001343 442.500000,512.000000 
"/>
<path fill="none" opacity="1.000000" stroke="#000000" stroke-linecap="round" stroke-linejoin="round" stroke-width="7.000000"
	d="
M538.000000,487.500000 
	C533.760925,491.855103 532.539673,497.786011 530.084717,503.039612 
	C526.103577,511.559296 522.728149,520.360474 518.923706,528.966248 
	C518.437256,530.066528 518.745056,531.013062 518.500000,532.000000 
"/>
<path fill="none" opacity="1.000000" stroke="#000000" stroke-linecap="round" stroke-linejoin="round" stroke-width="7.000000"
	d="
M598.000000,399.000000 
	C604.750122,410.214661 603.094788,421.174591 597.000000,432.000000 
"/>
<path fill="none" opacity="1.000000" stroke="#000000" stroke-linecap="round" stroke-linejoin="round" stroke-width="8.000000"
	d="
M424.000000,486.000000 
	C415.852234,484.907440 407.664246,485.785400 399.500000,485.500000 
"/>
<path fill="none" opacity="1.000000" stroke="#000000" stroke-linecap="round" stroke-linejoin="round" stroke-width="7.000000"
	d="
M551.000000,387.500000 
	C543.693298,388.991425 537.017517,391.908051 532.576721,398.055450 
	C527.085754,405.656616 525.559937,414.118195 529.521240,422.990509 
	C533.752686,432.467896 540.840576,437.774506 551.493958,438.580109 
	C564.516724,439.564911 575.133057,431.124786 577.880737,419.970612 
	C581.181335,406.572388 574.560547,392.255524 558.991455,388.535736 
	C556.551697,387.952789 554.098511,387.094696 551.500000,387.500000 
"/>
<path fill="none" opacity="1.000000" stroke="#000000" stroke-linecap="round" stroke-linejoin="round" stroke-width="8.000000"
	d="
M284.000000,336.500000 
	C271.195435,338.784088 261.136383,345.108856 254.495590,356.497437 
	C251.338058,361.912415 249.480591,367.651398 249.482361,374.000000 
	C249.508102,465.833344 249.575409,557.666809 249.429565,649.499878 
	C249.403702,665.783447 256.784210,677.158081 270.507874,684.986206 
	C276.063812,688.155396 282.077148,689.525696 288.500000,689.524353 
	C434.666656,689.492737 580.833374,689.448486 726.999939,689.562866 
	C746.078430,689.577820 765.361877,672.714478 765.410034,651.499817 
	C765.619568,559.166931 765.573364,466.833252 765.442932,374.500092 
	C765.414185,354.143829 746.805725,336.471222 727.000000,336.476929 
	C579.500000,336.519409 432.000000,336.500000 284.500000,336.500000 
"/>
<path fill="none" opacity="1.000000" stroke="#000000" stroke-linecap="round" stroke-linejoin="round" stroke-width="8.000000"
	d="
M273.000000,304.500000 
	C267.410583,306.161652 261.526886,306.184692 255.960510,308.400818 
	C234.383362,316.991394 221.990784,332.553680 218.396774,355.483826 
	C217.529327,361.018188 217.521286,366.489105 217.519730,372.000000 
	C217.492416,468.666656 217.339905,565.333740 217.597214,661.999756 
	C217.674759,691.135010 237.205887,715.403748 266.000183,719.998779 
	C270.805420,720.765686 275.578796,721.545715 280.500031,721.543945 
	C433.000000,721.490234 585.500366,721.670349 737.999695,721.353088 
	C767.701660,721.291321 790.500305,702.384705 796.442383,671.988708 
	C796.881714,669.741333 796.594849,667.328796 796.484375,665.000732 
	C795.835632,651.332520 796.712280,637.660400 796.790100,624.001648 
	C796.879517,608.327820 796.460266,592.666809 796.487732,577.000000 
	C796.532776,551.333374 796.418701,525.666260 796.545898,500.000214 
	C796.588013,491.498779 797.378113,483.001648 797.444153,474.499573 
	C797.519287,464.834778 797.100159,455.167236 797.016113,445.499847 
	C796.900146,432.165649 796.829163,418.825134 796.753723,405.498566 
	C796.678406,392.183197 796.921265,378.832520 796.958740,365.499878 
	C797.035217,338.316925 784.528137,319.191315 759.475098,308.558685 
	C752.368835,305.542755 744.667297,304.553436 737.000000,304.550110 
	C582.500000,304.483154 428.000000,304.500000 273.500000,304.500000 
"/>
</svg>