<svg version="1.1" id="Layer_1" xmlns="http://www.w3.org/2000/svg" xmlns:xlink="http://www.w3.org/1999/xlink" x="0px" y="0px"
	 width="100%" viewBox="0 0 1024 1024" enable-background="new 0 0 1024 1024" xml:space="preserve">
<path fill="#000000" opacity="1.000000" stroke="none" 
	d="
M657.346436,582.549072 
	C650.738098,583.325195 644.587036,582.423645 638.432434,582.456421 
	C608.111267,582.617981 577.782471,582.758728 547.469727,582.614136 
	C513.982300,582.454468 480.503143,583.525085 447.023926,582.841187 
	C438.213745,582.661255 429.421906,582.346069 419.474548,583.165771 
	C433.469452,586.505493 446.412415,589.602539 459.359772,592.681091 
	C469.393829,595.067078 479.439056,597.406433 489.468414,599.812012 
	C495.373108,601.228333 497.241394,603.446289 497.249908,609.625793 
	C497.305603,649.949341 497.314758,690.273010 497.278900,730.596680 
	C497.272919,737.323425 493.740814,739.727356 486.501099,737.976074 
	C464.516327,732.658264 442.546509,727.278320 420.579773,721.886414 
	C409.117126,719.072693 397.658722,716.239502 386.226624,713.305176 
	C380.020081,711.712097 378.668396,709.862305 378.665710,703.469177 
	C378.649902,665.478271 378.657166,627.487366 378.647827,589.496460 
	C378.646240,583.083801 378.314697,582.537659 371.994843,582.492432 
	C357.812500,582.390869 360.369354,580.909912 360.329437,593.379517 
	C360.205780,632.036560 360.293823,670.694214 360.295776,709.351624 
	C360.296234,718.780762 358.695709,720.382996 349.286194,720.382629 
	C339.288605,720.382324 329.290802,720.404846 319.293457,720.350830 
	C312.873016,720.316162 310.457703,718.184814 310.254700,711.757019 
	C310.076324,706.108154 310.548248,700.442139 310.550354,694.783630 
	C310.578400,619.968262 310.573517,545.152832 310.581421,470.337463 
	C310.581635,468.505066 310.553070,466.667084 310.679291,464.841431 
	C310.962158,460.751038 313.340729,458.507355 317.261169,457.877228 
	C318.728302,457.641418 320.252075,457.719116 321.750031,457.719025 
	C449.219543,457.710327 576.689026,457.707855 704.158569,457.707916 
	C705.491150,457.707916 706.837097,457.633453 708.153931,457.787994 
	C712.573425,458.306671 715.114502,460.726746 715.299255,465.280945 
	C715.393799,467.610138 715.335876,469.945770 715.335938,472.278473 
	C715.338196,551.426208 715.340759,630.573914 715.337891,709.721680 
	C715.337585,718.805908 713.767334,720.357910 704.514771,720.378113 
	C694.850464,720.399231 685.186035,720.395935 675.521729,720.367126 
	C667.367493,720.342834 664.897095,717.859314 664.891052,709.522339 
	C664.862061,669.531921 664.869202,629.541504 664.857239,589.551086 
	C664.855042,582.358826 664.841553,582.358826 657.346436,582.549072 
M432.500031,470.260895 
	C398.004364,470.252594 363.508667,470.243835 329.013000,470.236420 
	C322.349030,470.234985 322.350037,470.237396 322.349976,476.789551 
	C322.349426,537.783081 322.348145,598.776611 322.347900,659.770142 
	C322.347839,674.268616 322.429596,688.767761 322.294800,703.264954 
	C322.262787,706.709167 323.438660,708.124512 326.901367,708.006653 
	C331.562286,707.847900 336.232330,707.969849 340.898285,707.941956 
	C347.742462,707.900940 347.776917,707.889893 347.779114,701.024292 
	C347.797546,643.530457 347.803345,586.036621 347.810059,528.542786 
	C347.810974,520.877014 347.679047,513.208984 347.824524,505.546112 
	C347.942688,499.323822 350.686981,496.606445 356.663971,496.500977 
	C366.489563,496.327545 376.329010,495.875031 386.141022,496.197601 
	C415.456665,497.161407 444.772583,496.263214 474.087738,496.532593 
	C504.572357,496.812775 535.061829,496.644562 565.548828,496.558167 
	C599.040466,496.463226 632.531555,496.201691 666.023132,496.093689 
	C674.919495,496.065002 677.317261,498.566315 677.324951,507.389526 
	C677.344849,530.053772 677.330811,552.718079 677.330322,575.382324 
	C677.329346,617.544495 677.404053,659.707031 677.225342,701.868469 
	C677.204529,706.775208 678.784973,708.409851 683.513306,708.037476 
	C687.488281,707.724487 691.507385,707.980896 695.506958,707.968323 
	C702.908630,707.945068 702.930237,707.939941 702.931580,700.501770 
	C702.944946,625.843323 702.950195,551.184814 702.959656,476.526337 
	C702.960449,470.289459 702.889893,470.210938 696.472107,470.212097 
	C608.814758,470.228058 521.157410,470.245148 432.500031,470.260895 
M390.419250,602.312134 
	C390.575745,611.640747 390.884125,620.969727 390.858307,630.297852 
	C390.797394,652.291748 390.653320,674.286255 390.352417,696.277954 
	C390.297302,700.307373 391.549316,702.145508 395.636841,703.115479 
	C416.682678,708.109436 437.648560,713.439819 458.652618,718.611023 
	C466.998138,720.665710 475.370117,722.612854 483.398102,724.529724 
	C485.160431,722.924194 484.795898,721.330994 484.797089,719.890015 
	C484.825684,685.224915 484.786682,650.559692 484.881012,615.894836 
	C484.890594,612.373352 483.512421,610.996155 480.166809,610.205383 
	C457.022095,604.734558 433.951355,598.949280 410.792297,593.541443 
	C404.251984,592.014221 397.858063,589.598633 390.421600,589.024414 
	C390.421600,593.453979 390.421600,597.413147 390.419250,602.312134 
M592.499939,533.663452 
	C614.825012,533.663208 637.150269,533.614502 659.474915,533.712524 
	C663.033203,533.728088 665.261719,533.117371 665.021973,528.852905 
	C664.779297,524.534912 664.971985,520.192566 664.973206,515.860840 
	C664.975342,508.391144 664.975098,508.398346 657.653259,508.397949 
	C562.022095,508.392914 466.390961,508.385681 370.759827,508.379150 
	C369.093781,508.379028 367.412170,508.527069 365.764771,508.352203 
	C361.763947,507.927643 359.935455,509.326813 360.247559,513.627380 
	C360.560333,517.936829 360.324402,522.285950 360.330841,526.617676 
	C360.341339,533.655762 360.341980,533.666809 367.583008,533.666870 
	C442.221954,533.667664 516.860901,533.664673 592.499939,533.663452 
M632.499939,570.655640 
	C641.327454,570.648865 650.159851,570.464600 658.980347,570.709961 
	C663.409180,570.833069 665.497620,569.578857 665.065186,564.807129 
	C664.735962,561.174255 665.022034,557.485046 665.045044,553.820984 
	C665.094788,545.899841 665.097595,545.908691 656.980164,545.908386 
	C563.710388,545.905273 470.440582,545.900208 377.170807,545.891052 
	C372.680450,545.890625 368.189758,545.871582 363.699860,545.812622 
	C361.826599,545.788025 360.359100,546.126953 360.362122,548.445618 
	C360.371399,555.574890 360.365479,562.704102 360.365479,570.654724 
	C451.070892,570.654724 541.285400,570.654724 632.499939,570.655640 
z"/>
<path fill="#000000" opacity="1.000000" stroke="none" 
	d="
M553.751587,294.249725 
	C565.534668,306.294556 577.090088,318.067627 588.580933,329.903412 
	C589.952087,331.315704 591.249329,332.934479 592.102600,334.690002 
	C594.855713,340.354584 591.907104,345.220917 585.606018,345.345978 
	C578.109680,345.494812 570.607788,345.338165 563.108948,345.395386 
	C556.899902,345.442749 555.131287,347.208710 555.125916,353.492432 
	C555.109192,373.323792 555.165161,393.155182 555.177429,412.986572 
	C555.183655,423.031769 551.799927,426.357300 541.637634,426.355927 
	C522.639343,426.353363 503.641083,426.360565 484.642822,426.343964 
	C474.240082,426.334900 470.763885,422.909607 470.769470,412.639648 
	C470.779968,393.308105 470.845978,373.976562 470.844147,354.645020 
	C470.843414,347.147400 469.186310,345.480896 461.821808,345.425385 
	C455.156067,345.375122 448.487976,345.304474 441.824371,345.427704 
	C437.985199,345.498688 434.934601,344.596283 433.381500,340.696014 
	C431.855774,336.864685 433.351105,333.851440 435.910095,331.186340 
	C442.026123,324.816681 448.245819,318.546539 454.356964,312.172241 
	C470.730896,295.093201 487.084747,277.994812 503.415710,260.874695 
	C510.465240,253.484528 514.688171,253.408096 521.722900,260.752167 
	C532.327698,271.823242 542.911682,282.914307 553.751587,294.249725 
z"/>
<path fill="#000000" opacity="1.000000" stroke="none" 
	d="
M304.968018,446.089813 
	C306.768616,447.950592 307.583954,449.804077 305.834015,451.612732 
	C303.907135,453.604340 301.924652,452.555237 300.041504,451.202423 
	C269.096771,428.973694 238.138535,406.763733 207.201416,384.524384 
	C205.320343,383.172150 203.370316,381.793793 202.497589,379.493134 
	C202.071121,378.368896 202.024323,377.175964 202.903946,376.201263 
	C203.894287,375.103882 205.067047,375.551575 206.109894,376.073486 
	C207.295898,376.667053 208.446701,377.360229 209.528183,378.129150 
	C241.261154,400.689484 272.983551,423.264679 304.968018,446.089813 
z"/>
<path fill="#000000" opacity="1.000000" stroke="none" 
	d="
M866.946167,561.657471 
	C868.762207,564.673218 867.321655,566.099792 864.852173,566.620483 
	C862.756714,567.062195 860.556396,567.142273 858.401917,567.147034 
	C823.751099,567.223511 789.100281,567.265564 754.449402,567.297058 
	C753.125366,567.298218 751.761902,567.279419 750.487122,566.975342 
	C748.911438,566.599548 747.893005,565.500671 747.834290,563.770935 
	C747.774597,562.013794 748.710938,560.878296 750.356628,560.548767 
	C751.975281,560.224670 753.651184,560.037720 755.301392,560.041199 
	C790.613403,560.115540 825.928711,559.656555 861.235535,560.632812 
	C863.058289,560.683228 864.914490,560.546875 866.946167,561.657471 
z"/>
<path fill="#000000" opacity="1.000000" stroke="none" 
	d="
M760.382812,426.421753 
	C749.420105,434.306671 738.743591,441.975128 728.061279,449.635681 
	C726.980408,450.410797 725.916199,451.231598 724.753662,451.864960 
	C723.169861,452.727783 721.420654,452.924866 720.250793,451.310272 
	C719.031006,449.626709 719.333740,447.812195 720.836182,446.350403 
	C721.666321,445.542664 722.620728,444.851990 723.566956,444.175507 
	C752.268494,423.656403 780.969238,403.136108 809.696533,382.653046 
	C811.856689,381.112823 814.171875,379.773590 816.494812,378.484985 
	C817.764404,377.780731 819.144531,377.954559 820.090759,379.178986 
	C821.049438,380.419647 820.803955,381.780457 819.779724,382.810791 
	C818.262329,384.337158 816.691284,385.853180 814.952454,387.109802 
	C796.879333,400.171295 778.768005,413.179840 760.382812,426.421753 
z"/>
<path fill="#000000" opacity="1.000000" stroke="none" 
	d="
M355.200409,367.842834 
	C359.062073,374.107391 362.761597,380.046295 366.411316,386.015656 
	C367.748596,388.202850 369.218872,390.704315 366.217499,392.522522 
	C363.196960,394.352386 361.608917,391.772644 360.319183,389.663177 
	C349.544769,372.041199 338.791962,354.405579 328.131073,336.714783 
	C320.221436,323.589508 312.387573,310.416901 304.701324,297.160248 
	C303.444183,294.992004 300.281219,291.929688 303.740967,289.837494 
	C307.334656,287.664337 308.840149,291.664856 310.327362,294.100250 
	C325.260712,318.554413 340.130737,343.047272 355.200409,367.842834 
z"/>
<path fill="#000000" opacity="1.000000" stroke="none" 
	d="
M721.855225,295.785950 
	C707.402344,321.678986 691.759583,346.432892 676.546814,371.444550 
	C672.829590,377.556030 669.234436,383.742737 665.450745,389.812256 
	C664.022888,392.102783 662.170471,394.639893 659.111267,392.154449 
	C656.371948,389.928925 658.514587,387.517212 659.729431,385.503510 
	C667.033325,373.396179 674.441650,361.351715 681.833130,349.297394 
	C692.703186,331.570038 703.587708,313.851624 714.469360,296.131439 
	C715.165894,294.997162 715.828674,293.834564 716.616211,292.765503 
	C717.959717,290.941742 719.176636,288.129913 721.969910,289.486176 
	C725.216431,291.062561 722.659241,293.435303 721.855225,295.785950 
z"/>
<path fill="#000000" opacity="1.000000" stroke="none" 
	d="
M222.479401,560.370544 
	C239.440384,560.228882 255.934494,560.103271 272.428772,560.075745 
	C275.144806,560.071228 278.255432,560.387451 278.049774,564.126831 
	C277.855835,567.652954 274.779694,567.320984 272.310913,567.318604 
	C236.318680,567.283997 200.326416,567.236450 164.334320,567.134949 
	C161.751358,567.127686 158.958542,567.499146 156.662827,565.128845 
	C158.022568,560.906494 161.524216,560.721619 165.029602,560.708801 
	C181.359314,560.649231 197.689209,560.643372 214.018997,560.597900 
	C216.683670,560.590515 219.348038,560.481384 222.479401,560.370544 
z"/>
<path fill="#000000" opacity="1.000000" stroke="none" 
	d="
M771.136475,697.822327 
	C787.087769,707.800598 802.725891,717.597656 818.360779,727.399780 
	C818.923584,727.752625 819.476196,728.128418 819.997742,728.539001 
	C821.883972,730.023804 824.076233,731.888123 822.610962,734.306030 
	C820.807251,737.282227 818.362488,734.804382 816.634644,733.748108 
	C792.380066,718.920959 768.189880,703.988281 744.006714,689.044556 
	C741.799438,687.680664 739.628906,685.778442 741.229370,682.978821 
	C743.038452,679.814148 745.522095,681.665955 747.631348,682.989136 
	C755.377319,687.848572 763.094666,692.753906 771.136475,697.822327 
z"/>
<path fill="#000000" opacity="1.000000" stroke="none" 
	d="
M208.850677,733.988647 
	C206.723694,735.050842 204.914963,735.507263 203.975037,733.117249 
	C203.043945,730.749634 204.649734,729.267090 206.354019,728.178589 
	C213.367935,723.698669 220.459229,719.340027 227.509232,714.916260 
	C243.866089,704.652588 260.212555,694.372314 276.573639,684.115295 
	C277.837891,683.322693 279.126923,682.516357 280.505859,681.974609 
	C282.008820,681.383972 283.501923,681.651428 284.490295,683.101074 
	C285.609558,684.742676 285.187622,686.282410 283.903381,687.610962 
	C283.334045,688.200012 282.628082,688.680359 281.924438,689.113037 
	C257.677582,704.019348 233.423660,718.914124 208.850677,733.988647 
z"/>
<path fill="#000000" opacity="1.000000" stroke="none" 
	d="
M474.859070,654.187378 
	C479.083557,660.772156 477.553436,667.557434 476.400909,674.130615 
	C475.935699,676.783875 473.011932,677.626892 470.279663,677.208862 
	C467.647186,676.806091 465.972260,675.012268 465.839355,672.509644 
	C465.583954,667.699646 465.428375,662.835815 465.864471,658.052124 
	C466.248962,653.834534 469.710327,652.427124 474.859070,654.187378 
z"/>
</svg>